# Blender 4.5.2 LTS
# www.blender.org
mtllib 3d renderer island.mtl
o Grass
v -0.590340 0.103510 1.246919
v -1.154014 -0.117785 0.997211
v -0.562565 0.243333 1.299017
v -0.593470 0.415818 1.235660
v -1.148595 -0.033082 1.016482
v -1.149626 0.210501 0.975451
v -0.654049 0.550744 0.874087
v -1.149362 0.480129 0.693933
v -1.684145 0.126472 0.546215
v -1.614298 0.380535 0.524092
v -1.717741 -0.024396 0.000000
v -1.724481 0.140658 -0.514935
v -1.687551 0.061703 -0.525247
v -0.729284 0.593172 0.000000
v -0.650450 0.531883 -0.874732
v -1.286537 0.572286 0.000000
v -1.148805 0.524168 -0.694379
v -0.574141 0.038294 -1.205831
v -1.095396 -0.010740 -0.956302
v -0.595288 0.333532 -1.163969
v -1.078403 0.321915 -0.937018
v -1.664920 0.398124 0.000000
v -1.614353 0.383134 -0.523866
v 0.000000 0.149648 1.257078
v 0.574984 -0.053421 1.141040
v 1.080875 0.109619 0.978869
v 0.000000 0.539356 0.956693
v 0.729284 0.593172 0.000000
v 0.650450 0.531883 0.874631
v 1.286537 0.587268 0.000000
v 1.148805 0.524168 0.694379
v 0.000000 0.354272 1.272754
v 0.595376 0.322628 1.177097
v 1.078829 0.321905 0.959430
v 1.735381 0.112230 0.518190
v 1.614352 0.382976 0.523865
v 0.000000 0.188509 -1.283489
v 0.000000 0.612444 0.000000
v 1.910633 0.180590 0.000000
v 0.000000 0.561817 -0.979648
v 0.654049 0.590920 -0.874160
v 1.149362 0.570389 -0.693933
v 1.720046 0.156448 -0.522047
v 1.823958 0.498330 0.000000
v 1.614333 0.488149 -0.524125
v 0.000000 0.408393 -1.314545
v 0.576858 0.141975 -1.167831
v 0.592020 0.351801 -1.166090
v 1.084026 -0.037792 -0.969757
v 1.078232 0.347475 -0.937497
v -0.520500 -0.885346 0.501831
v -0.927329 -1.153046 0.476568
v -0.542430 -0.436762 0.841744
v -0.956208 -0.679072 0.741750
v -1.403017 -0.422853 0.476336
v -1.674329 0.050009 0.529376
v -0.504838 -1.075639 0.000000
v -0.956110 -1.074384 0.000000
v -0.523456 -1.431849 -0.502093
v -0.927745 -1.043060 -0.476336
v -1.590278 -0.276397 0.000000
v -1.403052 -0.425107 -0.476568
v -0.539413 -0.734735 -0.842548
v -1.687850 -0.079537 0.000000
v 0.000000 -0.969850 0.000000
v 0.000000 -0.647002 0.501171
v 0.523456 -1.019612 0.502093
v 0.927745 -0.824066 0.476336
v 1.403052 -0.349642 0.476568
v 0.000000 -0.219171 0.897712
v 0.539413 -0.372674 0.842548
v 0.955754 -0.502728 0.741754
v 0.000000 0.033405 1.220001
v 0.575937 -0.220706 1.128208
v 1.067463 -0.027803 0.921374
v 1.836124 0.032985 0.000000
v 1.641802 -0.002701 0.498233
v 0.000000 -1.180156 -0.501171
v 0.504838 -2.204521 0.000000
v 0.520500 -1.064469 -0.501831
v 0.956110 -1.358006 0.000000
v 0.927329 -0.828911 -0.476568
v 1.590278 -0.235023 0.000000
v 1.403017 -0.340862 -0.476336
v 1.642425 0.029291 -0.497844
vn 0.4014 0.0459 -0.9147
vn 0.8093 -0.5364 0.2394
vn -0.3304 0.9341 0.1351
vn -0.0049 0.9996 -0.0283
vn -0.3664 0.9246 -0.1045
vn 0.8746 0.3051 0.3768
vn 0.0120 0.9046 0.4261
vn -0.4123 0.7532 0.5125
vn 0.1799 0.9810 -0.0730
vn -0.0403 0.9973 -0.0619
vn -0.0398 0.9964 -0.0750
vn -0.3772 0.6690 0.6404
vn -0.1732 0.8514 -0.4952
vn -0.2714 0.7369 -0.6191
vn 0.8240 -0.4824 -0.2973
vn 0.5292 -0.4459 0.7218
vn 0.0095 -0.3298 0.9440
vn -0.3184 -0.2441 0.9160
vn -0.1030 0.9898 0.0989
vn -0.0095 0.9979 0.0634
vn 0.0270 0.9962 0.0827
vn -0.5688 0.1403 -0.8104
vn 0.2512 0.7564 0.6039
vn 0.8977 0.2648 -0.3521
vn -0.4282 0.6292 -0.6487
vn 0.1034 0.8345 0.5412
vn -0.1939 0.0126 -0.9809
vn 0.0278 0.9995 -0.0160
vn -0.9713 0.2379 -0.0066
vn 0.5647 0.1222 -0.8162
vn 0.5867 0.1720 0.7913
vn 0.0212 0.1271 0.9917
vn 0.1275 0.8349 -0.5355
vn 0.2945 0.6861 -0.6652
vn 0.2525 0.9445 0.2103
vn 0.4266 0.6612 0.6172
vn 0.0237 0.9970 0.0742
vn 0.1085 -0.1720 0.9791
vn 0.4068 -0.2212 0.8863
vn -0.6838 -0.1772 0.7078
vn -0.9461 -0.3008 0.1199
vn 0.1591 -0.0932 0.9829
vn 0.3635 -0.0376 0.9308
vn -0.8920 -0.4351 -0.1226
vn 0.3619 0.6326 -0.6847
vn 0.2136 -0.0740 -0.9741
vn -0.4312 0.0846 -0.8983
vn -0.4826 0.1781 0.8575
vn -0.6329 0.1830 0.7523
vn -0.0027 -0.9867 -0.1627
vn 0.2031 -0.5292 0.8238
vn -0.8083 -0.5870 0.0446
vn -0.6279 -0.4088 0.6623
vn 0.1897 -0.9054 0.3799
vn 0.7652 -0.6102 0.2054
vn -0.7831 -0.6136 -0.1016
vn -0.6787 -0.2775 0.6800
vn -0.8586 -0.4859 0.1633
vn -0.6545 -0.4729 0.5899
vn -0.0028 -0.9978 -0.0658
vn 0.5070 -0.8006 0.3194
vn -0.1944 -0.8555 0.4800
vn 0.5572 -0.4139 0.7199
vn -0.8573 -0.4903 -0.1568
vn 0.3428 -0.6152 0.7100
vn 0.7526 -0.5228 0.4003
vn -0.2302 -0.5480 0.8042
vn 0.1704 -0.5282 0.8318
vn 0.5562 -0.5575 0.6163
vn 0.1064 -0.3735 0.9215
vn 0.7700 -0.5934 -0.2344
vn 0.1735 -0.8279 0.5333
vn 0.2012 -0.9032 0.3790
vn 0.6113 -0.3259 -0.7212
vn 0.0686 -0.6722 0.7372
vn 0.7542 -0.5195 -0.4017
vn 0.2283 -0.6230 0.7482
vn 0.3669 -0.7651 0.5292
vn -0.5916 -0.6470 0.4810
vn 0.3924 -0.8559 0.3368
vn 0.2062 -0.4256 -0.8811
vn -0.4383 -0.4025 -0.8037
vn -0.5141 -0.7211 0.4645
vn 0.6003 -0.3200 0.7330
vn -0.6919 -0.2829 -0.6643
vn 0.3926 -0.6036 -0.6939
vn -0.0564 -0.5227 0.8506
vn -0.9822 0.1799 0.0549
vn 0.4696 -0.8029 0.3671
vn -0.2416 -0.7638 0.5986
vt 0.559571 0.434542
vt 0.500000 0.437510
vt 0.500000 0.407341
vt 0.562702 0.407814
vt 0.500000 0.687510
vt 0.467186 0.687702
vt 0.467659 0.625000
vt 0.500000 0.625000
vt 0.610587 0.221154
vt 0.559542 0.065429
vt 0.809571 0.684542
vt 0.812510 0.625000
vt 0.750000 0.625000
vt 0.717659 0.625000
vt 0.716997 0.562265
vt 0.750000 0.562490
vt 0.809542 0.565429
vt 0.559571 0.184542
vt 0.559571 0.684542
vt 0.562510 0.625000
vt 0.562510 0.875000
vt 0.750000 0.687510
vt 0.783003 0.687736
vt 0.562702 0.907814
vt 0.559571 0.934542
vt 0.559542 0.565429
vt 0.690429 0.565458
vt 0.687490 0.625000
vt 0.782814 0.562298
vt 0.782341 0.625000
vt 0.562510 0.375000
vt 0.562735 0.341997
vt 0.559542 0.315429
vt 0.466997 0.562265
vt 0.504311 0.562465
vt 0.500000 0.812490
vt 0.466997 0.812265
vt 0.500000 0.875000
vt 0.500000 0.907341
vt 0.466641 0.908634
vt 0.467659 0.875000
vt 0.500000 0.937510
vt 0.480963 0.937622
vt 0.717186 0.687702
vt 0.690458 0.684571
vt 0.500000 0.312490
vt 0.500000 0.187510
vt 0.562735 0.841997
vt 0.559542 0.815429
vt 0.500000 0.342659
vt 0.500000 0.375000
vt 0.500000 0.125000
vt 0.466366 0.841641
vt 0.500000 0.842659
vt 0.500000 0.118776
vt 0.489556 0.098965
vt 0.483560 0.125000
vt 0.480447 0.187624
vt 0.217659 0.625000
vt 0.190458 0.684571
vt 0.187490 0.625000
vt 0.437265 0.908003
vt 0.440458 0.934571
vt 0.217186 0.687702
vt 0.437490 0.125000
vt 0.440429 0.065458
vt 0.250000 0.562490
vt 0.250000 0.625000
vt 0.440458 0.684571
vt 0.437490 0.625000
vt 0.532341 0.625000
vt 0.533003 0.687735
vt 0.440458 0.184571
vt 0.190429 0.565458
vt 0.283003 0.687735
vt 0.282341 0.625000
vt 0.574777 0.093696
vt 0.532341 0.125000
vt 0.543328 0.952324
vt 0.533359 0.841366
vt 0.437490 0.875000
vt 0.437298 0.842186
vt 0.532814 0.812298
vt 0.440429 0.815458
vt 0.544128 0.185856
vt 0.312510 0.625000
vt 0.309571 0.684542
vt 0.250000 0.687510
vt 0.440429 0.565458
vt 0.532814 0.562298
vt 0.282814 0.562298
vt 0.532341 0.875000
vt 0.533634 0.908359
vt 0.309542 0.565429
vt 0.216997 0.562265
vt 0.437298 0.342186
s 0
usemtl Grass
f 50/1/1 49/2/1 47/3/1 48/4/1
f 35/5/2 77/6/2 76/7/2 39/8/2
f 22/9/3 10/10/3 8/11/3 16/12/3
f 38/13/4 28/14/4 41/15/4 40/16/4
f 16/12/5 17/17/5 23/18/5 22/9/5
f 36/19/6 35/5/6 39/8/6 44/20/6
f 32/21/7 27/22/7 7/23/7 4/24/7
f 7/23/8 8/11/8 6/25/8 4/24/8
f 44/20/9 45/26/9 42/27/9 30/28/9
f 38/13/10 40/16/10 15/29/10 14/30/10
f 14/30/11 15/29/11 17/17/11 16/12/11
f 10/10/12 6/25/12 8/11/12
f 46/31/13 20/32/13 15/29/13 40/16/13
f 20/32/14 21/33/14 17/17/14 15/29/14
f 85/34/15 43/35/15 39/8/15 76/7/15
f 26/36/16 75/37/16 77/6/16 35/5/16
f 24/38/17 3/39/17 1/40/17 73/41/17
f 3/39/18 5/42/18 2/43/18 1/40/18
f 8/11/19 7/23/19 14/30/19 16/12/19
f 7/23/20 27/22/20 38/13/20 14/30/20
f 28/14/21 29/44/21 31/45/21 30/28/21
f 21/33/22 19/46/22 12/47/22 23/18/22
f 29/44/23 33/48/23 34/49/23 31/45/23
f 44/20/24 39/8/24 43/35/24 45/26/24
f 23/18/25 17/17/25 21/33/25
f 32/21/26 33/48/26 29/44/26 27/22/26
f 18/50/27 20/32/27 46/31/27 37/51/27
f 42/27/28 41/15/28 28/14/28 30/28/28
f 22/9/29 23/18/29 12/47/29 11/52/29
f 49/2/30 50/1/30 45/26/30 43/35/30
f 34/49/31 26/36/31 35/5/31 36/19/31
f 24/38/32 32/21/32 4/24/32 3/39/32
f 40/16/33 41/15/33 48/4/33 46/31/33
f 41/15/34 42/27/34 50/1/34 48/4/34
f 30/28/35 31/45/35 36/19/35 44/20/35
f 36/19/36 31/45/36 34/49/36
f 38/13/37 27/22/37 29/44/37 28/14/37
f 24/38/38 73/41/38 74/53/38 25/54/38
f 25/54/39 74/53/39 75/37/39 26/36/39
f 9/55/40 56/56/40 2/43/40 5/42/40
f 56/56/41 9/55/41 11/52/41 64/57/41
f 33/48/42 32/21/42 24/38/42 25/54/42
f 25/54/43 26/36/43 34/49/43 33/48/43
f 11/52/44 12/47/44 13/58/44 64/57/44
f 50/1/45 42/27/45 45/26/45
f 48/4/46 47/3/46 37/51/46 46/31/46
f 19/46/47 21/33/47 20/32/47 18/50/47
f 3/39/48 4/24/48 6/25/48 5/42/48
f 6/25/49 10/10/49 9/55/49 5/42/49
f 9/55/88 10/10/88 22/9/88 11/52/88
usemtl Land
f 57/59/50 52/60/50 58/61/50
f 53/62/51 54/63/51 52/60/51 51/64/51
f 61/65/52 58/61/52 52/60/52 55/66/52
f 54/63/53 55/66/53 52/60/53
f 57/59/54 78/67/54 65/68/54
f 69/69/55 83/70/55 76/71/55 77/72/55
f 61/65/56 62/73/56 60/74/56 58/61/56
f 67/75/57 65/68/57 79/76/57
f 61/65/58 55/66/58 56/77/58 64/78/58
f 2/79/59 56/77/59 55/66/59 54/63/59
f 60/74/60 57/59/60 58/61/60
f 57/59/61 51/64/61 52/60/61
f 74/80/62 70/81/62 71/82/62
f 77/72/63 75/83/63 72/84/63 69/69/63
f 62/73/64 61/65/64 64/78/64 13/85/64
f 67/75/65 81/86/65 68/87/65
f 83/70/66 69/69/66 68/87/66 81/86/66
f 70/81/67 66/88/67 67/75/67 71/82/67
f 71/82/68 67/75/68 68/87/68 72/84/68
f 69/69/69 72/84/69 68/87/69
f 75/83/70 71/82/70 72/84/70
f 83/70/71 84/89/71 85/90/71 76/71/71
f 66/88/72 57/59/72 65/68/72
f 80/91/73 65/68/73 78/67/73
f 80/91/74 81/86/74 79/76/74
f 53/62/75 70/81/75 73/92/75 1/93/75
f 81/86/76 82/94/76 84/89/76 83/70/76
f 70/81/77 53/62/77 51/64/77 66/88/77
f 57/59/78 59/95/78 78/67/78
f 60/74/79 59/95/79 57/59/79
f 66/88/80 51/64/80 57/59/80
f 78/67/81 59/95/81 63/96/81
f 63/96/82 59/95/82 60/74/82
f 67/75/83 66/88/83 65/68/83
f 67/75/84 79/76/84 81/86/84
f 80/91/85 79/76/85 65/68/85
f 80/91/86 82/94/86 81/86/86
f 54/63/87 53/62/87 1/93/87 2/79/87
f 75/83/89 74/80/89 71/82/89
f 74/80/90 73/92/90 70/81/90
o Cube
v 0.537636 0.597779 -0.434238
v 0.537636 0.918429 -0.434238
v 0.849754 0.597779 -0.746355
v 0.849754 0.918429 -0.746355
v 0.849754 0.597779 -0.122120
v 0.849754 0.918429 -0.122120
v 1.161872 0.597779 -0.434238
v 1.161872 0.918429 -0.434238
v 0.537636 0.818480 -0.434238
v 0.849754 0.818480 -0.746355
v 1.161872 0.818480 -0.434238
v 0.849754 0.818480 -0.122120
v 1.057832 0.597779 -0.538277
v 0.953793 0.597779 -0.642316
v 0.953793 0.918429 -0.642316
v 1.057832 0.918429 -0.538277
v 0.641675 0.597779 -0.330199
v 0.745715 0.597779 -0.226159
v 0.745715 0.918429 -0.226159
v 0.641675 0.918429 -0.330199
v 0.745715 0.818480 -0.226159
v 0.641675 0.818480 -0.330199
v 0.953793 0.818480 -0.642316
v 1.057832 0.818480 -0.538277
v 0.744018 0.597779 -0.432541
v 0.848058 0.597779 -0.328502
v 0.848058 0.818480 -0.328502
v 0.744018 0.818480 -0.432541
vn -0.7071 -0.0000 -0.7071
vn 0.7071 -0.0000 -0.7071
vn 0.7071 -0.0000 0.7071
vn -0.7071 -0.0000 0.7071
vn -0.0000 -1.0000 -0.0000
vn -0.0000 1.0000 -0.0000
vt 0.500000 0.000000
vt 0.625000 0.000000
vt 0.625000 0.250000
vt 0.500000 0.250000
vt 0.500000 0.416667
vt 0.625000 0.416667
vt 0.625000 0.500000
vt 0.500000 0.500000
vt 0.625000 0.750000
vt 0.500000 0.750000
vt 0.500000 0.916667
vt 0.625000 0.916667
vt 0.625000 1.000000
vt 0.500000 1.000000
vt 0.291667 0.500000
vt 0.375000 0.500000
vt 0.375000 0.750000
vt 0.291667 0.750000
vt 0.791667 0.500000
vt 0.875000 0.500000
vt 0.875000 0.750000
vt 0.791667 0.750000
vt 0.375000 0.916667
vt 0.375000 1.000000
vt 0.375000 0.416667
vt 0.375000 0.000000
vt 0.375000 0.250000
vt 0.500000 0.333333
vt 0.375000 0.333333
vt 0.500000 0.833333
vt 0.375000 0.833333
vt 0.208333 0.750000
vt 0.708333 0.500000
vt 0.708333 0.750000
vt 0.125000 0.500000
vt 0.208333 0.500000
vt 0.125000 0.750000
vt 0.625000 0.833333
vt 0.625000 0.333333
s 0
usemtl House
f 94/97/91 87/98/91 89/99/91 95/100/91
f 109/101/92 101/102/92 93/103/92 96/104/92
f 96/104/93 93/103/93 91/105/93 97/106/93
f 107/107/94 105/108/94 87/109/94 94/110/94
f 98/111/95 92/112/95 90/113/95 103/114/95
f 100/115/96 89/116/96 87/117/96 105/118/96
f 102/119/94 107/107/94 94/110/94 86/120/94
f 92/112/93 96/104/93 97/106/93 90/113/93
f 98/121/92 109/101/92 96/104/92 92/112/92
f 86/122/91 94/97/91 95/100/91 88/123/91
f 88/123/92 95/100/92 108/124/92 99/125/92
f 99/125/92 108/124/92 109/101/92 98/121/92
f 90/113/94 97/106/94 106/126/94 103/127/94
f 102/128/96 103/114/96 111/114/96 110/128/96
f 93/103/96 101/129/96 104/130/96 91/105/96
f 101/129/96 100/115/96 105/118/96 104/130/96
f 88/131/95 99/132/95 102/128/95 86/133/95
f 99/132/95 98/111/95 103/114/95 102/128/95
f 97/106/94 91/105/94 104/134/94 106/126/94
f 106/126/94 104/134/94 105/108/94 107/107/94
f 95/100/92 89/99/92 100/135/92 108/124/92
f 108/124/92 100/135/92 101/102/92 109/101/92
f 111/127/94 112/126/94 113/107/94 110/119/94
f 103/127/91 106/126/91 112/126/91 111/127/91
f 107/107/93 102/119/93 110/119/93 113/107/93
f 106/126/95 107/107/95 113/107/95 112/126/95
o Roof
v 0.471442 0.918429 -0.497326
v 0.786665 0.918429 -0.812550
v 0.912842 0.918429 -0.055925
v 0.692142 1.160848 -0.276626
v 1.228066 0.918429 -0.371149
v 1.007366 1.160848 -0.591850
v 1.007366 0.918429 -0.591850
v 0.692142 0.918429 -0.276626
vn 0.7071 -0.0000 -0.7071
vn -0.0000 -1.0000 -0.0000
vn 0.4337 0.7898 0.4337
vn -0.7071 -0.0000 0.7071
vn -0.4337 0.7898 -0.4337
vt 0.375000 0.500000
vt 0.625000 0.500000
vt 0.875000 0.500000
vt 0.375000 0.750000
vt 0.625000 0.750000
vt 0.875000 0.750000
s 0
usemtl Roof
f 118/136/97 120/137/97 115/138/97 119/137/97
f 120/137/98 118/136/98 116/139/98 121/140/98
f 118/136/99 119/137/99 117/140/99 116/139/99
f 116/139/100 117/140/100 121/140/100
f 119/137/101 115/138/101 114/141/101 117/140/101
f 115/138/98 120/137/98 121/140/98 114/141/98
f 117/140/100 114/141/100 121/140/100
o Door
v 0.643594 0.597779 -0.332118
v 0.747634 0.597779 -0.228078
v 0.747634 0.818480 -0.228078
v 0.643594 0.818480 -0.332118
vn -0.7071 -0.0000 0.7071
vt 0.375000 0.833333
vt 0.500000 0.833333
vt 0.500000 0.916667
vt 0.375000 0.916667
s 0
usemtl Door
f 123/142/102 124/143/102 125/144/102 122/145/102
o Tree
v -0.951701 0.582189 -0.056718
v -0.976298 0.582189 -0.251417
v -1.068797 0.582189 -0.424498
v -0.912481 0.582189 -0.543147
v -0.808838 0.582189 -0.709797
v -0.755560 0.582189 -0.050284
v -0.471005 0.582189 -0.140882
v -0.574646 0.582189 0.025764
v -0.627926 0.582189 -0.633746
v -0.314687 0.582189 -0.259535
v -0.431783 0.582189 -0.627315
v -0.407189 0.582189 -0.432613
v -0.805337 1.261190 -0.222809
v -0.805490 0.989212 -0.223471
v -0.855710 0.746740 -0.161228
v -0.850903 1.265963 -0.290812
v -0.851194 0.993991 -0.291869
v -0.885960 0.746772 -0.280181
v -0.764247 0.747521 -0.574216
v -0.715905 1.007622 -0.500044
v -0.715825 1.279525 -0.499328
v -0.841868 0.747168 -0.478965
v -0.797146 1.006090 -0.452524
v -0.797138 1.277941 -0.451649
v -0.931137 0.746791 -0.394385
v -0.848833 1.000451 -0.375826
v -0.848625 1.272366 -0.374700
v -0.540716 1.258281 -0.308143
v -0.540881 0.986244 -0.308256
v -0.453018 0.746726 -0.289410
v -0.498717 0.746615 -0.403417
v -0.539919 0.990133 -0.390688
v -0.539197 1.262325 -0.389804
v -0.527364 0.746726 -0.522916
v -0.571088 0.997028 -0.462597
v -0.570141 1.269270 -0.461284
v -0.647698 0.746988 -0.541175
v -0.633420 1.003878 -0.503926
v -0.632859 1.275974 -0.502919
v -0.727905 1.259119 -0.186143
v -0.727933 0.987149 -0.186545
v -0.735243 0.746745 -0.143200
v -0.618027 0.746720 -0.110183
v -0.642455 0.986579 -0.189995
v -0.642465 1.258545 -0.189695
v -0.541040 0.746762 -0.205071
v -0.575160 0.985894 -0.234592
v -0.575217 1.257859 -0.234579
vn 0.7645 0.2547 0.5922
vn 0.2931 0.5285 -0.7967
vn -0.6958 0.5335 -0.4809
vn -0.5415 0.5291 -0.6533
vn 0.7627 0.5322 -0.3674
vn 0.8348 0.5322 -0.1413
vn 0.0664 0.5292 -0.8459
vn -0.2908 0.5325 0.7949
vn 0.6964 0.5325 0.4811
vn 0.5538 -0.0004 0.8327
vn 0.6750 0.2416 0.6971
vn 0.0409 -0.0013 0.9992
vn -0.1394 0.2413 0.9604
vn 0.5530 0.0020 -0.8332
vn 0.3110 0.1969 -0.9298
vn 0.9176 -0.0012 -0.3976
vn 0.9366 0.2033 -0.2853
vn 0.9999 -0.0017 0.0150
vn 0.9451 0.2499 -0.2104
vn -0.8303 0.0024 -0.5574
vn -0.7357 0.2380 -0.6341
vn -0.5054 0.0026 -0.8629
vn -0.6480 0.2553 -0.7176
vn -0.0450 0.0032 -0.9990
vn 0.1463 0.1914 -0.9705
vn -0.9996 0.0010 -0.0275
vn -0.9521 0.2196 0.2129
vn 0.5421 0.5297 0.6524
vn -0.9036 0.2129 0.3718
vn -0.8311 -0.0011 0.5561
vn -0.7655 0.5287 0.3669
vn -0.2576 0.2356 0.9371
vn -0.4290 -0.0016 0.9033
vn -0.8344 0.5315 0.1460
vn 0.9060 -0.0003 0.4233
vn -0.0653 0.5302 0.8454
vt 0.410061 0.687500
vt 0.416667 0.625000
vt 0.500000 0.625000
vt 0.500000 0.687500
vt 0.416667 0.375000
vt 0.375000 0.375000
vt 0.375000 0.312500
vt 0.416667 0.312500
vt 0.375000 0.187500
vt 0.416667 0.187500
vt 0.375000 0.125000
vt 0.416667 0.125000
vt 0.375000 0.625000
vt 0.365092 0.562500
vt 0.410061 0.562500
vt 0.338022 0.484387
vt 0.392015 0.484387
vt 0.282070 0.467930
vt 0.354713 0.467930
vt 0.354713 0.782070
vt 0.282070 0.782070
vt 0.338022 0.765614
vt 0.392015 0.765614
vt 0.365092 0.687500
vt 0.500000 0.765614
vt 0.589939 0.687500
vt 0.607985 0.765614
vt 0.645287 0.782070
vt 0.500000 0.782070
vt 0.500000 0.484387
vt 0.500000 0.467930
vt 0.645287 0.467930
vt 0.607985 0.484387
vt 0.500000 0.562500
vt 0.589939 0.562500
vt 0.583333 0.625000
vt 0.500000 0.187500
vt 0.500000 0.125000
vt 0.583333 0.125000
vt 0.583333 0.187500
vt 0.500000 0.312500
vt 0.583333 0.312500
vt 0.500000 0.375000
vt 0.583333 0.375000
vt 0.583333 0.062500
vt 0.500000 0.062500
vt 0.416667 0.062500
vt 0.500000 0.000000
vt 0.416667 0.000000
vt 0.583333 0.000000
vt 0.375000 0.062500
vt 0.500000 0.875000
vt 0.500000 1.000000
vt 0.416667 1.000000
vt 0.416667 0.875000
vt 0.583333 0.875000
vt 0.583333 1.000000
vt 0.375000 0.000000
vt 0.375000 0.875000
vt 0.375000 1.000000
s 0
usemtl Door
f 171/146/103 155/147/103 154/148/103 172/149/103
f 162/150/104 134/151/104 130/152/104 144/153/104
f 144/153/105 130/152/105 129/154/105 147/155/105
f 147/155/106 129/154/106 128/156/106 150/157/106
f 155/147/107 135/158/107 137/159/107 156/160/107
f 156/160/108 137/159/108 136/161/108 159/162/108
f 159/162/109 136/161/109 134/163/109 162/164/109
f 167/165/110 131/166/110 133/167/110 168/168/110
f 168/168/111 133/167/111 132/169/111 171/146/111
f 169/170/112 172/149/112 173/171/112 170/172/112
f 168/168/113 171/146/113 172/149/113 169/170/113
f 165/173/114 166/174/114 169/170/114 170/172/114
f 166/174/115 167/165/115 168/168/115 169/170/115
f 160/175/116 163/176/116 164/177/116 161/178/116
f 159/162/117 162/164/117 163/176/117 160/175/117
f 157/179/118 160/175/118 161/178/118 158/180/118
f 156/160/119 159/162/119 160/175/119 157/179/119
f 153/181/120 154/148/120 157/179/120 158/180/120
f 154/148/121 155/147/121 156/160/121 157/179/121
f 148/182/122 151/183/122 152/184/122 149/185/122
f 147/155/123 150/157/123 151/183/123 148/182/123
f 145/186/124 148/182/124 149/185/124 146/187/124
f 144/153/125 147/155/125 148/182/125 145/186/125
f 163/188/126 145/186/126 146/187/126 164/189/126
f 162/150/127 144/153/127 145/186/127 163/188/127
f 141/190/128 152/184/128 151/183/128 142/191/128
f 142/191/129 151/183/129 150/157/129 143/192/129
f 171/146/130 132/169/130 135/158/130 155/147/130
f 139/193/131 142/191/131 143/192/131 140/194/131
f 138/195/132 141/190/132 142/191/132 139/193/132
f 127/196/133 143/192/133 150/157/133 128/156/133
f 166/197/134 139/198/134 140/199/134 167/200/134
f 165/201/135 138/202/135 139/198/135 166/197/135
f 126/203/136 140/194/136 143/192/136 127/196/136
f 172/149/137 154/148/137 153/181/137 173/171/137
f 131/204/138 167/200/138 140/199/138 126/205/138
o Leaves
v -0.795370 1.045295 -0.316933
v -1.086246 1.463490 -0.173636
v -0.943276 1.173643 -0.508451
v -0.696232 1.126363 -0.620808
v -0.907874 1.332629 -0.623985
v -1.086246 1.573534 -0.432987
v -1.161963 1.261106 -0.383283
v -0.896781 1.579541 -0.557765
v -0.696232 1.126363 -0.095860
v -0.795370 1.732378 -0.399734
v -0.778406 1.446291 -0.010729
v -0.794979 1.638461 -0.143408
v -0.910318 1.199663 -0.170066
v -0.484191 1.123377 -0.414413
v -0.306396 1.463613 -0.543216
v -0.614058 1.446291 -0.705938
v -0.597359 1.638577 -0.572993
v -0.484191 1.654296 -0.302254
v -0.482129 1.199780 -0.546663
v -0.249045 1.276071 -0.440223
v -0.495636 1.579407 -0.158843
v -0.230063 1.414511 -0.226571
v -0.465886 1.249929 -0.121507
vn -0.7364 -0.6653 0.1229
vn -0.4278 -0.7696 0.4741
vn -0.3823 0.5024 0.7755
vn -0.3240 -0.8824 -0.3411
vn -0.1876 -0.2073 -0.9601
vn -0.4389 -0.4622 -0.7705
vn -0.3644 0.7753 -0.5160
vn -0.1536 0.5709 -0.8065
vn -0.9624 0.2501 0.1061
vn 0.2988 -0.9315 0.2076
vn 0.4750 -0.8182 0.3238
vn 0.2136 -0.1996 0.9563
vn -0.4373 -0.3112 0.8438
vn 0.1541 0.5703 0.8068
vn 0.1269 0.9314 0.3411
vn 0.1796 -0.9635 -0.1985
vn 0.4249 -0.7867 -0.4479
vn 0.2912 0.9403 -0.1763
vn 0.3818 0.5030 -0.7754
vn 0.9619 0.1823 -0.2036
vn -0.6438 0.1222 -0.7554
vn -0.4833 0.8218 0.3018
vn -0.1819 0.7626 -0.6208
vn -0.3507 0.2573 -0.9005
vn 0.4372 -0.3112 -0.8438
vn -0.5703 -0.3960 -0.7197
vn -0.5104 0.7916 0.3359
vn -0.6440 -0.4208 0.6388
vn -0.3178 -0.9425 0.1034
vn 0.4073 0.1391 0.9026
vn 0.1943 0.8631 0.4662
vn 0.6170 0.7715 -0.1552
vn 0.5886 -0.7333 0.3403
vn 0.4545 -0.7743 -0.4403
vn 0.4766 -0.3067 -0.8239
vn 0.5536 0.7192 0.4198
vn 0.3229 0.1353 0.9367
vt 0.213830 0.638010
vt 0.160615 0.724434
vt 0.125000 0.576163
vt 0.220600 0.728746
vt 0.519941 0.904537
vt 0.616628 0.914564
vt 0.500000 1.000000
vt 0.220600 0.521254
vt 0.398167 0.355574
vt 0.491845 0.286052
vt 0.519941 0.345463
vt 0.405710 0.225067
vt 0.786170 0.611990
vt 0.831770 0.521021
vt 0.875000 0.625000
vt 0.597994 0.231827
vt 0.611474 0.316562
vt 0.522306 0.054919
vt 0.570081 0.147306
vt 0.463039 0.134350
vt 0.160838 0.616893
vt 0.164447 0.730125
vt 0.398167 0.894426
vt 0.460415 0.984406
vt 0.434322 1.000000
vt 0.603603 0.953793
vt 0.801433 0.704782
vt 0.839162 0.633106
vt 0.125000 0.561167
vt 0.788534 0.532294
vt 0.522281 0.195144
vt 0.508716 0.085172
vt 0.457860 0.149938
vt 0.401716 0.237783
vt 0.567967 0.006159
vt 0.381159 0.057033
vt 0.861071 0.699693
vt 0.625000 0.125000
vt 0.375000 0.125000
vt 0.443808 0.021271
vt 0.587343 0.025523
s 0
usemtl Grass
f 174/206/139 186/207/139 176/208/139
f 182/209/140 186/207/140 174/206/140
f 184/210/141 185/211/141 175/212/141
f 174/206/142 176/208/142 177/213/142
f 177/214/143 178/215/143 189/216/143
f 177/214/144 176/217/144 178/215/144
f 183/218/145 181/219/145 179/220/145
f 181/221/146 190/222/146 189/216/146
f 175/223/147 179/224/147 180/225/147
f 187/226/148 182/209/148 174/206/148
f 187/226/149 196/227/149 182/209/149
f 182/228/150 196/229/150 184/210/150
f 186/230/151 182/228/151 184/210/151 175/212/151
f 194/231/152 185/211/152 184/210/152
f 185/232/153 191/233/153 183/218/153
f 177/213/154 187/226/154 174/206/154
f 177/213/155 192/234/155 187/226/155
f 191/233/156 190/235/156 183/218/156
f 189/216/157 190/222/157 188/236/157
f 188/236/158 195/237/158 193/238/158
f 178/215/159 180/225/159 179/224/159 181/221/159
f 183/218/160 179/220/160 185/232/160
f 190/235/161 181/219/161 183/218/161
f 178/215/162 181/221/162 189/216/162
f 192/239/163 177/214/163 189/216/163 188/236/163
f 178/215/164 176/217/164 180/225/164
f 175/223/165 185/240/165 179/224/165
f 180/225/166 186/241/166 175/223/166
f 176/217/167 186/241/167 180/225/167
f 196/229/168 194/231/168 184/210/168
f 185/232/169 194/242/169 191/233/169
f 191/243/170 195/237/170 188/236/170 190/222/170
f 187/244/171 193/238/171 195/237/171 196/245/171
f 187/244/172 192/239/172 193/238/172
f 193/238/173 192/239/173 188/236/173
f 191/243/174 194/246/174 195/237/174
f 195/237/175 194/246/175 196/245/175
